<mxfile host="app.diagrams.net" modified="2024-03-27T15:36:48.808Z" agent="Mozilla/5.0 (Windows NT 10.0; Win64; x64) AppleWebKit/537.36 (KHTML, like Gecko) Chrome/123.0.0.0 Safari/537.36" etag="BYAgqjPPhX1dmYBxGyAe" version="24.2.0" type="device">
  <diagram name="Page-1" id="Wl4qqZWPlfM1WC1LZrM2">
    <mxGraphModel dx="1607" dy="540" grid="1" gridSize="10" guides="1" tooltips="1" connect="1" arrows="1" fold="1" page="1" pageScale="1" pageWidth="850" pageHeight="1100" math="0" shadow="0">
      <root>
        <mxCell id="0" />
        <mxCell id="1" parent="0" />
        <mxCell id="0cN9bVkUMFvqnsQbVNbZ-35" value="" style="rounded=0;whiteSpace=wrap;html=1;" vertex="1" parent="1">
          <mxGeometry x="240" y="290" width="120" height="270" as="geometry" />
        </mxCell>
        <mxCell id="0cN9bVkUMFvqnsQbVNbZ-29" value="" style="rounded=0;whiteSpace=wrap;html=1;" vertex="1" parent="1">
          <mxGeometry x="240" y="90" width="120" height="190" as="geometry" />
        </mxCell>
        <mxCell id="0cN9bVkUMFvqnsQbVNbZ-9" style="edgeStyle=orthogonalEdgeStyle;rounded=0;orthogonalLoop=1;jettySize=auto;html=1;entryX=0;entryY=0.5;entryDx=0;entryDy=0;" edge="1" parent="1" source="0cN9bVkUMFvqnsQbVNbZ-1" target="0cN9bVkUMFvqnsQbVNbZ-5">
          <mxGeometry relative="1" as="geometry">
            <Array as="points">
              <mxPoint x="210" y="360" />
              <mxPoint x="210" y="230" />
            </Array>
          </mxGeometry>
        </mxCell>
        <mxCell id="0cN9bVkUMFvqnsQbVNbZ-16" style="edgeStyle=orthogonalEdgeStyle;rounded=0;orthogonalLoop=1;jettySize=auto;html=1;entryX=0;entryY=0.5;entryDx=0;entryDy=0;" edge="1" parent="1" source="0cN9bVkUMFvqnsQbVNbZ-1" target="0cN9bVkUMFvqnsQbVNbZ-15">
          <mxGeometry relative="1" as="geometry" />
        </mxCell>
        <mxCell id="0cN9bVkUMFvqnsQbVNbZ-19" style="edgeStyle=orthogonalEdgeStyle;rounded=0;orthogonalLoop=1;jettySize=auto;html=1;" edge="1" parent="1" source="0cN9bVkUMFvqnsQbVNbZ-1" target="0cN9bVkUMFvqnsQbVNbZ-17">
          <mxGeometry relative="1" as="geometry" />
        </mxCell>
        <mxCell id="0cN9bVkUMFvqnsQbVNbZ-20" style="edgeStyle=orthogonalEdgeStyle;rounded=0;orthogonalLoop=1;jettySize=auto;html=1;entryX=1;entryY=0.5;entryDx=0;entryDy=0;" edge="1" parent="1" source="0cN9bVkUMFvqnsQbVNbZ-1" target="0cN9bVkUMFvqnsQbVNbZ-18">
          <mxGeometry relative="1" as="geometry" />
        </mxCell>
        <mxCell id="0cN9bVkUMFvqnsQbVNbZ-24" style="edgeStyle=orthogonalEdgeStyle;rounded=0;orthogonalLoop=1;jettySize=auto;html=1;entryX=0;entryY=0.5;entryDx=0;entryDy=0;" edge="1" parent="1" source="0cN9bVkUMFvqnsQbVNbZ-1" target="0cN9bVkUMFvqnsQbVNbZ-23">
          <mxGeometry relative="1" as="geometry" />
        </mxCell>
        <mxCell id="0cN9bVkUMFvqnsQbVNbZ-1" value="Farmer" style="shape=umlActor;verticalLabelPosition=bottom;verticalAlign=top;html=1;outlineConnect=0;" vertex="1" parent="1">
          <mxGeometry x="150" y="330" width="30" height="60" as="geometry" />
        </mxCell>
        <mxCell id="0cN9bVkUMFvqnsQbVNbZ-8" style="edgeStyle=orthogonalEdgeStyle;rounded=0;orthogonalLoop=1;jettySize=auto;html=1;entryX=0;entryY=0.5;entryDx=0;entryDy=0;" edge="1" parent="1" source="0cN9bVkUMFvqnsQbVNbZ-2" target="0cN9bVkUMFvqnsQbVNbZ-5">
          <mxGeometry relative="1" as="geometry" />
        </mxCell>
        <mxCell id="0cN9bVkUMFvqnsQbVNbZ-22" style="edgeStyle=orthogonalEdgeStyle;rounded=0;orthogonalLoop=1;jettySize=auto;html=1;entryX=1;entryY=0.5;entryDx=0;entryDy=0;" edge="1" parent="1" source="0cN9bVkUMFvqnsQbVNbZ-2" target="0cN9bVkUMFvqnsQbVNbZ-21">
          <mxGeometry relative="1" as="geometry" />
        </mxCell>
        <mxCell id="0cN9bVkUMFvqnsQbVNbZ-27" style="edgeStyle=orthogonalEdgeStyle;rounded=0;orthogonalLoop=1;jettySize=auto;html=1;entryX=1;entryY=0.5;entryDx=0;entryDy=0;" edge="1" parent="1" source="0cN9bVkUMFvqnsQbVNbZ-2" target="0cN9bVkUMFvqnsQbVNbZ-25">
          <mxGeometry relative="1" as="geometry" />
        </mxCell>
        <mxCell id="0cN9bVkUMFvqnsQbVNbZ-2" value="Dealer" style="shape=umlActor;verticalLabelPosition=bottom;verticalAlign=top;html=1;outlineConnect=0;" vertex="1" parent="1">
          <mxGeometry x="150" y="200" width="30" height="60" as="geometry" />
        </mxCell>
        <mxCell id="0cN9bVkUMFvqnsQbVNbZ-10" style="edgeStyle=orthogonalEdgeStyle;rounded=0;orthogonalLoop=1;jettySize=auto;html=1;entryX=1;entryY=0.5;entryDx=0;entryDy=0;" edge="1" parent="1" source="0cN9bVkUMFvqnsQbVNbZ-3" target="0cN9bVkUMFvqnsQbVNbZ-5">
          <mxGeometry relative="1" as="geometry">
            <Array as="points">
              <mxPoint x="380" y="300" />
              <mxPoint x="380" y="230" />
            </Array>
          </mxGeometry>
        </mxCell>
        <mxCell id="0cN9bVkUMFvqnsQbVNbZ-14" style="edgeStyle=orthogonalEdgeStyle;rounded=0;orthogonalLoop=1;jettySize=auto;html=1;entryX=1;entryY=0.5;entryDx=0;entryDy=0;" edge="1" parent="1" source="0cN9bVkUMFvqnsQbVNbZ-3" target="0cN9bVkUMFvqnsQbVNbZ-13">
          <mxGeometry relative="1" as="geometry">
            <Array as="points">
              <mxPoint x="380" y="300" />
              <mxPoint x="380" y="530" />
            </Array>
          </mxGeometry>
        </mxCell>
        <mxCell id="0cN9bVkUMFvqnsQbVNbZ-34" style="edgeStyle=orthogonalEdgeStyle;rounded=0;orthogonalLoop=1;jettySize=auto;html=1;entryX=1;entryY=0.5;entryDx=0;entryDy=0;" edge="1" parent="1" source="0cN9bVkUMFvqnsQbVNbZ-3" target="0cN9bVkUMFvqnsQbVNbZ-11">
          <mxGeometry relative="1" as="geometry">
            <Array as="points">
              <mxPoint x="380" y="300" />
              <mxPoint x="380" y="480" />
            </Array>
          </mxGeometry>
        </mxCell>
        <mxCell id="0cN9bVkUMFvqnsQbVNbZ-3" value="Customer" style="shape=umlActor;verticalLabelPosition=bottom;verticalAlign=top;html=1;outlineConnect=0;" vertex="1" parent="1">
          <mxGeometry x="400" y="270" width="30" height="60" as="geometry" />
        </mxCell>
        <mxCell id="0cN9bVkUMFvqnsQbVNbZ-7" style="edgeStyle=orthogonalEdgeStyle;rounded=0;orthogonalLoop=1;jettySize=auto;html=1;" edge="1" parent="1" source="0cN9bVkUMFvqnsQbVNbZ-4" target="0cN9bVkUMFvqnsQbVNbZ-6">
          <mxGeometry relative="1" as="geometry">
            <Array as="points">
              <mxPoint x="420" y="140" />
              <mxPoint x="420" y="140" />
            </Array>
          </mxGeometry>
        </mxCell>
        <mxCell id="0cN9bVkUMFvqnsQbVNbZ-4" value="Unregistered&lt;div&gt;User&lt;/div&gt;" style="shape=umlActor;verticalLabelPosition=bottom;verticalAlign=top;html=1;outlineConnect=0;" vertex="1" parent="1">
          <mxGeometry x="400" y="110" width="30" height="60" as="geometry" />
        </mxCell>
        <mxCell id="0cN9bVkUMFvqnsQbVNbZ-5" value="Login" style="ellipse;whiteSpace=wrap;html=1;" vertex="1" parent="1">
          <mxGeometry x="250" y="210" width="100" height="40" as="geometry" />
        </mxCell>
        <mxCell id="0cN9bVkUMFvqnsQbVNbZ-6" value="Register" style="ellipse;whiteSpace=wrap;html=1;" vertex="1" parent="1">
          <mxGeometry x="250" y="120" width="100" height="40" as="geometry" />
        </mxCell>
        <mxCell id="0cN9bVkUMFvqnsQbVNbZ-11" value="View&lt;br&gt;Produce" style="ellipse;whiteSpace=wrap;html=1;" vertex="1" parent="1">
          <mxGeometry x="255" y="460" width="90" height="40" as="geometry" />
        </mxCell>
        <mxCell id="0cN9bVkUMFvqnsQbVNbZ-13" value="Buy&lt;br&gt;Produce" style="ellipse;whiteSpace=wrap;html=1;" vertex="1" parent="1">
          <mxGeometry x="255" y="510" width="90" height="40" as="geometry" />
        </mxCell>
        <mxCell id="0cN9bVkUMFvqnsQbVNbZ-17" value="View&lt;br&gt;Equipment" style="ellipse;whiteSpace=wrap;html=1;" vertex="1" parent="1">
          <mxGeometry x="-10" y="320" width="90" height="40" as="geometry" />
        </mxCell>
        <mxCell id="0cN9bVkUMFvqnsQbVNbZ-18" value="Buy&lt;br&gt;Equipment" style="ellipse;whiteSpace=wrap;html=1;" vertex="1" parent="1">
          <mxGeometry x="-10" y="380" width="90" height="40" as="geometry" />
        </mxCell>
        <mxCell id="0cN9bVkUMFvqnsQbVNbZ-21" value="Sell&lt;div&gt;Equipment&lt;/div&gt;" style="ellipse;whiteSpace=wrap;html=1;" vertex="1" parent="1">
          <mxGeometry x="-10" y="210" width="90" height="40" as="geometry" />
        </mxCell>
        <mxCell id="0cN9bVkUMFvqnsQbVNbZ-23" value="Create&lt;div&gt;Produce&lt;br&gt;listing&lt;/div&gt;" style="ellipse;whiteSpace=wrap;html=1;" vertex="1" parent="1">
          <mxGeometry x="255" y="350" width="90" height="50" as="geometry" />
        </mxCell>
        <mxCell id="0cN9bVkUMFvqnsQbVNbZ-25" value="Create&lt;div&gt;Equipment&lt;/div&gt;&lt;div&gt;listing&lt;/div&gt;" style="ellipse;whiteSpace=wrap;html=1;" vertex="1" parent="1">
          <mxGeometry x="-10" y="140" width="90" height="50" as="geometry" />
        </mxCell>
        <mxCell id="0cN9bVkUMFvqnsQbVNbZ-30" value="Login Portal" style="text;html=1;align=center;verticalAlign=middle;whiteSpace=wrap;rounded=0;" vertex="1" parent="1">
          <mxGeometry x="240" y="90" width="120" height="30" as="geometry" />
        </mxCell>
        <mxCell id="0cN9bVkUMFvqnsQbVNbZ-15" value="Sell&lt;div&gt;Produce&lt;/div&gt;" style="ellipse;whiteSpace=wrap;html=1;" vertex="1" parent="1">
          <mxGeometry x="255" y="410" width="90" height="40" as="geometry" />
        </mxCell>
        <mxCell id="0cN9bVkUMFvqnsQbVNbZ-36" value="Produce" style="text;html=1;align=center;verticalAlign=middle;whiteSpace=wrap;rounded=0;" vertex="1" parent="1">
          <mxGeometry x="270" y="300" width="60" height="30" as="geometry" />
        </mxCell>
      </root>
    </mxGraphModel>
  </diagram>
</mxfile>
